<svg width="57" height="72" viewBox="0 0 57 72" fill="none" xmlns="http://www.w3.org/2000/svg">
<path d="M56.4991 13.4156L42.7596 -0.000244141H28.4698L22.1523 37.7972L28.4698 71.9998H56.4991V13.4156Z" fill="#E4E7EC"/>
<path d="M0.5 -0.000244141H28.4729V71.9998H0.5V-0.000244141Z" fill="#F0F2F5"/>
<path d="M14.4766 12.0793H28.4651V18.2478H14.4766V12.0793Z" fill="#F7F9FC"/>
<path d="M42.454 24.6951H28.4653L26.3594 28.2603L28.4653 30.8638H42.454V24.6951Z" fill="#F7F9FC"/>
<path d="M42.454 43.4827V37.3142H28.4653L26.3594 40.3985L28.4653 43.4827H42.454Z" fill="#F7F9FC"/>
<path d="M42.454 56.0984V49.9297H28.4653L26.3594 53.2168L28.4653 56.0984H42.454Z" fill="#F7F9FC"/>
<path d="M14.4766 24.6956H28.4651V30.864H14.4766V24.6956Z" fill="#F7F9FC"/>
<path d="M14.4766 37.3127H28.4651V43.4812H14.4766V37.3127Z" fill="#F7F9FC"/>
<path d="M14.4766 49.9302H28.4651V56.0987H14.4766V49.9302Z" fill="#F7F9FC"/>
<path d="M42.7595 -0.000244141L42.5195 13.3808L56.499 13.4156L42.7595 -0.000244141Z" fill="#98A2B3"/>
</svg>
