<svg width="101" height="52" viewBox="0 0 101 52" fill="none" xmlns="http://www.w3.org/2000/svg">
<path d="M71.8969 17.3333H43.4297L25.8516 0H45.5297L71.8969 17.3333Z" fill="#E4E7EC"/>
<path d="M50.5 17.333H71.8947L50.5 3.26831V17.333Z" fill="#98A2B3"/>
<path d="M100.5 34.6667H51.9648L56.3594 28.8889H46.4488L43.5191 34.6667H21.0078C9.70098 34.6667 0.5 25.5938 0.5 14.4444V0H11.0973L16.9566 11.5556H79.9922C91.299 11.5556 100.5 20.6284 100.5 31.7778V34.6667Z" fill="#F0F2F5"/>
<path d="M100.5 34.6668V31.7779C100.5 20.6285 91.299 11.5557 79.9922 11.5557H50.5V28.889H56.3594L51.9648 34.6668H100.5Z" fill="#F0F2F5"/>
<path d="M46.1051 52H28.1836L42.832 23.1111H68.0777L46.1051 52Z" fill="#E4E7EC"/>
<path d="M50.5 46.2222L68.0781 23.1111H50.5V46.2222Z" fill="#98A2B3"/>
</svg>
